<svg id="mermaid-bd62ef8b-3f24-4c40-ad3e-e6156c0e5c21" width="100%" xmlns="http://www.w3.org/2000/svg" style="max-width: 1990px;" viewBox="0 0 1990 767.4666748046875" role="graphics-document document" aria-roledescription="timeline"><style>#mermaid-bd62ef8b-3f24-4c40-ad3e-e6156c0e5c21{font-family:"trebuchet ms",verdana,arial,sans-serif;font-size:16px;fill:#333;}#mermaid-bd62ef8b-3f24-4c40-ad3e-e6156c0e5c21 .error-icon{fill:#552222;}#mermaid-bd62ef8b-3f24-4c40-ad3e-e6156c0e5c21 .error-text{fill:#552222;stroke:#552222;}#mermaid-bd62ef8b-3f24-4c40-ad3e-e6156c0e5c21 .edge-thickness-normal{stroke-width:2px;}#mermaid-bd62ef8b-3f24-4c40-ad3e-e6156c0e5c21 .edge-thickness-thick{stroke-width:3.5px;}#mermaid-bd62ef8b-3f24-4c40-ad3e-e6156c0e5c21 .edge-pattern-solid{stroke-dasharray:0;}#mermaid-bd62ef8b-3f24-4c40-ad3e-e6156c0e5c21 .edge-pattern-dashed{stroke-dasharray:3;}#mermaid-bd62ef8b-3f24-4c40-ad3e-e6156c0e5c21 .edge-pattern-dotted{stroke-dasharray:2;}#mermaid-bd62ef8b-3f24-4c40-ad3e-e6156c0e5c21 .marker{fill:#333333;stroke:#333333;}#mermaid-bd62ef8b-3f24-4c40-ad3e-e6156c0e5c21 .marker.cross{stroke:#333333;}#mermaid-bd62ef8b-3f24-4c40-ad3e-e6156c0e5c21 svg{font-family:"trebuchet ms",verdana,arial,sans-serif;font-size:16px;}#mermaid-bd62ef8b-3f24-4c40-ad3e-e6156c0e5c21 .edge{stroke-width:3;}#mermaid-bd62ef8b-3f24-4c40-ad3e-e6156c0e5c21 .section--1 rect,#mermaid-bd62ef8b-3f24-4c40-ad3e-e6156c0e5c21 .section--1 path,#mermaid-bd62ef8b-3f24-4c40-ad3e-e6156c0e5c21 .section--1 circle,#mermaid-bd62ef8b-3f24-4c40-ad3e-e6156c0e5c21 .section--1 path{fill:hsl(240, 100%, 76.2745098039%);}#mermaid-bd62ef8b-3f24-4c40-ad3e-e6156c0e5c21 .section--1 text{fill:#ffffff;}#mermaid-bd62ef8b-3f24-4c40-ad3e-e6156c0e5c21 .node-icon--1{font-size:40px;color:#ffffff;}#mermaid-bd62ef8b-3f24-4c40-ad3e-e6156c0e5c21 .section-edge--1{stroke:hsl(240, 100%, 76.2745098039%);}#mermaid-bd62ef8b-3f24-4c40-ad3e-e6156c0e5c21 .edge-depth--1{stroke-width:17;}#mermaid-bd62ef8b-3f24-4c40-ad3e-e6156c0e5c21 .section--1 line{stroke:hsl(60, 100%, 86.2745098039%);stroke-width:3;}#mermaid-bd62ef8b-3f24-4c40-ad3e-e6156c0e5c21 .lineWrapper line{stroke:#ffffff;}#mermaid-bd62ef8b-3f24-4c40-ad3e-e6156c0e5c21 .disabled,#mermaid-bd62ef8b-3f24-4c40-ad3e-e6156c0e5c21 .disabled circle,#mermaid-bd62ef8b-3f24-4c40-ad3e-e6156c0e5c21 .disabled text{fill:lightgray;}#mermaid-bd62ef8b-3f24-4c40-ad3e-e6156c0e5c21 .disabled text{fill:#efefef;}#mermaid-bd62ef8b-3f24-4c40-ad3e-e6156c0e5c21 .section-0 rect,#mermaid-bd62ef8b-3f24-4c40-ad3e-e6156c0e5c21 .section-0 path,#mermaid-bd62ef8b-3f24-4c40-ad3e-e6156c0e5c21 .section-0 circle,#mermaid-bd62ef8b-3f24-4c40-ad3e-e6156c0e5c21 .section-0 path{fill:hsl(60, 100%, 73.5294117647%);}#mermaid-bd62ef8b-3f24-4c40-ad3e-e6156c0e5c21 .section-0 text{fill:black;}#mermaid-bd62ef8b-3f24-4c40-ad3e-e6156c0e5c21 .node-icon-0{font-size:40px;color:black;}#mermaid-bd62ef8b-3f24-4c40-ad3e-e6156c0e5c21 .section-edge-0{stroke:hsl(60, 100%, 73.5294117647%);}#mermaid-bd62ef8b-3f24-4c40-ad3e-e6156c0e5c21 .edge-depth-0{stroke-width:14;}#mermaid-bd62ef8b-3f24-4c40-ad3e-e6156c0e5c21 .section-0 line{stroke:hsl(240, 100%, 83.5294117647%);stroke-width:3;}#mermaid-bd62ef8b-3f24-4c40-ad3e-e6156c0e5c21 .lineWrapper line{stroke:black;}#mermaid-bd62ef8b-3f24-4c40-ad3e-e6156c0e5c21 .disabled,#mermaid-bd62ef8b-3f24-4c40-ad3e-e6156c0e5c21 .disabled circle,#mermaid-bd62ef8b-3f24-4c40-ad3e-e6156c0e5c21 .disabled text{fill:lightgray;}#mermaid-bd62ef8b-3f24-4c40-ad3e-e6156c0e5c21 .disabled text{fill:#efefef;}#mermaid-bd62ef8b-3f24-4c40-ad3e-e6156c0e5c21 .section-1 rect,#mermaid-bd62ef8b-3f24-4c40-ad3e-e6156c0e5c21 .section-1 path,#mermaid-bd62ef8b-3f24-4c40-ad3e-e6156c0e5c21 .section-1 circle,#mermaid-bd62ef8b-3f24-4c40-ad3e-e6156c0e5c21 .section-1 path{fill:hsl(80, 100%, 76.2745098039%);}#mermaid-bd62ef8b-3f24-4c40-ad3e-e6156c0e5c21 .section-1 text{fill:black;}#mermaid-bd62ef8b-3f24-4c40-ad3e-e6156c0e5c21 .node-icon-1{font-size:40px;color:black;}#mermaid-bd62ef8b-3f24-4c40-ad3e-e6156c0e5c21 .section-edge-1{stroke:hsl(80, 100%, 76.2745098039%);}#mermaid-bd62ef8b-3f24-4c40-ad3e-e6156c0e5c21 .edge-depth-1{stroke-width:11;}#mermaid-bd62ef8b-3f24-4c40-ad3e-e6156c0e5c21 .section-1 line{stroke:hsl(260, 100%, 86.2745098039%);stroke-width:3;}#mermaid-bd62ef8b-3f24-4c40-ad3e-e6156c0e5c21 .lineWrapper line{stroke:black;}#mermaid-bd62ef8b-3f24-4c40-ad3e-e6156c0e5c21 .disabled,#mermaid-bd62ef8b-3f24-4c40-ad3e-e6156c0e5c21 .disabled circle,#mermaid-bd62ef8b-3f24-4c40-ad3e-e6156c0e5c21 .disabled text{fill:lightgray;}#mermaid-bd62ef8b-3f24-4c40-ad3e-e6156c0e5c21 .disabled text{fill:#efefef;}#mermaid-bd62ef8b-3f24-4c40-ad3e-e6156c0e5c21 .section-2 rect,#mermaid-bd62ef8b-3f24-4c40-ad3e-e6156c0e5c21 .section-2 path,#mermaid-bd62ef8b-3f24-4c40-ad3e-e6156c0e5c21 .section-2 circle,#mermaid-bd62ef8b-3f24-4c40-ad3e-e6156c0e5c21 .section-2 path{fill:hsl(270, 100%, 76.2745098039%);}#mermaid-bd62ef8b-3f24-4c40-ad3e-e6156c0e5c21 .section-2 text{fill:#ffffff;}#mermaid-bd62ef8b-3f24-4c40-ad3e-e6156c0e5c21 .node-icon-2{font-size:40px;color:#ffffff;}#mermaid-bd62ef8b-3f24-4c40-ad3e-e6156c0e5c21 .section-edge-2{stroke:hsl(270, 100%, 76.2745098039%);}#mermaid-bd62ef8b-3f24-4c40-ad3e-e6156c0e5c21 .edge-depth-2{stroke-width:8;}#mermaid-bd62ef8b-3f24-4c40-ad3e-e6156c0e5c21 .section-2 line{stroke:hsl(90, 100%, 86.2745098039%);stroke-width:3;}#mermaid-bd62ef8b-3f24-4c40-ad3e-e6156c0e5c21 .lineWrapper line{stroke:#ffffff;}#mermaid-bd62ef8b-3f24-4c40-ad3e-e6156c0e5c21 .disabled,#mermaid-bd62ef8b-3f24-4c40-ad3e-e6156c0e5c21 .disabled circle,#mermaid-bd62ef8b-3f24-4c40-ad3e-e6156c0e5c21 .disabled text{fill:lightgray;}#mermaid-bd62ef8b-3f24-4c40-ad3e-e6156c0e5c21 .disabled text{fill:#efefef;}#mermaid-bd62ef8b-3f24-4c40-ad3e-e6156c0e5c21 .section-3 rect,#mermaid-bd62ef8b-3f24-4c40-ad3e-e6156c0e5c21 .section-3 path,#mermaid-bd62ef8b-3f24-4c40-ad3e-e6156c0e5c21 .section-3 circle,#mermaid-bd62ef8b-3f24-4c40-ad3e-e6156c0e5c21 .section-3 path{fill:hsl(300, 100%, 76.2745098039%);}#mermaid-bd62ef8b-3f24-4c40-ad3e-e6156c0e5c21 .section-3 text{fill:black;}#mermaid-bd62ef8b-3f24-4c40-ad3e-e6156c0e5c21 .node-icon-3{font-size:40px;color:black;}#mermaid-bd62ef8b-3f24-4c40-ad3e-e6156c0e5c21 .section-edge-3{stroke:hsl(300, 100%, 76.2745098039%);}#mermaid-bd62ef8b-3f24-4c40-ad3e-e6156c0e5c21 .edge-depth-3{stroke-width:5;}#mermaid-bd62ef8b-3f24-4c40-ad3e-e6156c0e5c21 .section-3 line{stroke:hsl(120, 100%, 86.2745098039%);stroke-width:3;}#mermaid-bd62ef8b-3f24-4c40-ad3e-e6156c0e5c21 .lineWrapper line{stroke:black;}#mermaid-bd62ef8b-3f24-4c40-ad3e-e6156c0e5c21 .disabled,#mermaid-bd62ef8b-3f24-4c40-ad3e-e6156c0e5c21 .disabled circle,#mermaid-bd62ef8b-3f24-4c40-ad3e-e6156c0e5c21 .disabled text{fill:lightgray;}#mermaid-bd62ef8b-3f24-4c40-ad3e-e6156c0e5c21 .disabled text{fill:#efefef;}#mermaid-bd62ef8b-3f24-4c40-ad3e-e6156c0e5c21 .section-4 rect,#mermaid-bd62ef8b-3f24-4c40-ad3e-e6156c0e5c21 .section-4 path,#mermaid-bd62ef8b-3f24-4c40-ad3e-e6156c0e5c21 .section-4 circle,#mermaid-bd62ef8b-3f24-4c40-ad3e-e6156c0e5c21 .section-4 path{fill:hsl(330, 100%, 76.2745098039%);}#mermaid-bd62ef8b-3f24-4c40-ad3e-e6156c0e5c21 .section-4 text{fill:black;}#mermaid-bd62ef8b-3f24-4c40-ad3e-e6156c0e5c21 .node-icon-4{font-size:40px;color:black;}#mermaid-bd62ef8b-3f24-4c40-ad3e-e6156c0e5c21 .section-edge-4{stroke:hsl(330, 100%, 76.2745098039%);}#mermaid-bd62ef8b-3f24-4c40-ad3e-e6156c0e5c21 .edge-depth-4{stroke-width:2;}#mermaid-bd62ef8b-3f24-4c40-ad3e-e6156c0e5c21 .section-4 line{stroke:hsl(150, 100%, 86.2745098039%);stroke-width:3;}#mermaid-bd62ef8b-3f24-4c40-ad3e-e6156c0e5c21 .lineWrapper line{stroke:black;}#mermaid-bd62ef8b-3f24-4c40-ad3e-e6156c0e5c21 .disabled,#mermaid-bd62ef8b-3f24-4c40-ad3e-e6156c0e5c21 .disabled circle,#mermaid-bd62ef8b-3f24-4c40-ad3e-e6156c0e5c21 .disabled text{fill:lightgray;}#mermaid-bd62ef8b-3f24-4c40-ad3e-e6156c0e5c21 .disabled text{fill:#efefef;}#mermaid-bd62ef8b-3f24-4c40-ad3e-e6156c0e5c21 .section-5 rect,#mermaid-bd62ef8b-3f24-4c40-ad3e-e6156c0e5c21 .section-5 path,#mermaid-bd62ef8b-3f24-4c40-ad3e-e6156c0e5c21 .section-5 circle,#mermaid-bd62ef8b-3f24-4c40-ad3e-e6156c0e5c21 .section-5 path{fill:hsl(0, 100%, 76.2745098039%);}#mermaid-bd62ef8b-3f24-4c40-ad3e-e6156c0e5c21 .section-5 text{fill:black;}#mermaid-bd62ef8b-3f24-4c40-ad3e-e6156c0e5c21 .node-icon-5{font-size:40px;color:black;}#mermaid-bd62ef8b-3f24-4c40-ad3e-e6156c0e5c21 .section-edge-5{stroke:hsl(0, 100%, 76.2745098039%);}#mermaid-bd62ef8b-3f24-4c40-ad3e-e6156c0e5c21 .edge-depth-5{stroke-width:-1;}#mermaid-bd62ef8b-3f24-4c40-ad3e-e6156c0e5c21 .section-5 line{stroke:hsl(180, 100%, 86.2745098039%);stroke-width:3;}#mermaid-bd62ef8b-3f24-4c40-ad3e-e6156c0e5c21 .lineWrapper line{stroke:black;}#mermaid-bd62ef8b-3f24-4c40-ad3e-e6156c0e5c21 .disabled,#mermaid-bd62ef8b-3f24-4c40-ad3e-e6156c0e5c21 .disabled circle,#mermaid-bd62ef8b-3f24-4c40-ad3e-e6156c0e5c21 .disabled text{fill:lightgray;}#mermaid-bd62ef8b-3f24-4c40-ad3e-e6156c0e5c21 .disabled text{fill:#efefef;}#mermaid-bd62ef8b-3f24-4c40-ad3e-e6156c0e5c21 .section-6 rect,#mermaid-bd62ef8b-3f24-4c40-ad3e-e6156c0e5c21 .section-6 path,#mermaid-bd62ef8b-3f24-4c40-ad3e-e6156c0e5c21 .section-6 circle,#mermaid-bd62ef8b-3f24-4c40-ad3e-e6156c0e5c21 .section-6 path{fill:hsl(30, 100%, 76.2745098039%);}#mermaid-bd62ef8b-3f24-4c40-ad3e-e6156c0e5c21 .section-6 text{fill:black;}#mermaid-bd62ef8b-3f24-4c40-ad3e-e6156c0e5c21 .node-icon-6{font-size:40px;color:black;}#mermaid-bd62ef8b-3f24-4c40-ad3e-e6156c0e5c21 .section-edge-6{stroke:hsl(30, 100%, 76.2745098039%);}#mermaid-bd62ef8b-3f24-4c40-ad3e-e6156c0e5c21 .edge-depth-6{stroke-width:-4;}#mermaid-bd62ef8b-3f24-4c40-ad3e-e6156c0e5c21 .section-6 line{stroke:hsl(210, 100%, 86.2745098039%);stroke-width:3;}#mermaid-bd62ef8b-3f24-4c40-ad3e-e6156c0e5c21 .lineWrapper line{stroke:black;}#mermaid-bd62ef8b-3f24-4c40-ad3e-e6156c0e5c21 .disabled,#mermaid-bd62ef8b-3f24-4c40-ad3e-e6156c0e5c21 .disabled circle,#mermaid-bd62ef8b-3f24-4c40-ad3e-e6156c0e5c21 .disabled text{fill:lightgray;}#mermaid-bd62ef8b-3f24-4c40-ad3e-e6156c0e5c21 .disabled text{fill:#efefef;}#mermaid-bd62ef8b-3f24-4c40-ad3e-e6156c0e5c21 .section-7 rect,#mermaid-bd62ef8b-3f24-4c40-ad3e-e6156c0e5c21 .section-7 path,#mermaid-bd62ef8b-3f24-4c40-ad3e-e6156c0e5c21 .section-7 circle,#mermaid-bd62ef8b-3f24-4c40-ad3e-e6156c0e5c21 .section-7 path{fill:hsl(90, 100%, 76.2745098039%);}#mermaid-bd62ef8b-3f24-4c40-ad3e-e6156c0e5c21 .section-7 text{fill:black;}#mermaid-bd62ef8b-3f24-4c40-ad3e-e6156c0e5c21 .node-icon-7{font-size:40px;color:black;}#mermaid-bd62ef8b-3f24-4c40-ad3e-e6156c0e5c21 .section-edge-7{stroke:hsl(90, 100%, 76.2745098039%);}#mermaid-bd62ef8b-3f24-4c40-ad3e-e6156c0e5c21 .edge-depth-7{stroke-width:-7;}#mermaid-bd62ef8b-3f24-4c40-ad3e-e6156c0e5c21 .section-7 line{stroke:hsl(270, 100%, 86.2745098039%);stroke-width:3;}#mermaid-bd62ef8b-3f24-4c40-ad3e-e6156c0e5c21 .lineWrapper line{stroke:black;}#mermaid-bd62ef8b-3f24-4c40-ad3e-e6156c0e5c21 .disabled,#mermaid-bd62ef8b-3f24-4c40-ad3e-e6156c0e5c21 .disabled circle,#mermaid-bd62ef8b-3f24-4c40-ad3e-e6156c0e5c21 .disabled text{fill:lightgray;}#mermaid-bd62ef8b-3f24-4c40-ad3e-e6156c0e5c21 .disabled text{fill:#efefef;}#mermaid-bd62ef8b-3f24-4c40-ad3e-e6156c0e5c21 .section-8 rect,#mermaid-bd62ef8b-3f24-4c40-ad3e-e6156c0e5c21 .section-8 path,#mermaid-bd62ef8b-3f24-4c40-ad3e-e6156c0e5c21 .section-8 circle,#mermaid-bd62ef8b-3f24-4c40-ad3e-e6156c0e5c21 .section-8 path{fill:hsl(150, 100%, 76.2745098039%);}#mermaid-bd62ef8b-3f24-4c40-ad3e-e6156c0e5c21 .section-8 text{fill:black;}#mermaid-bd62ef8b-3f24-4c40-ad3e-e6156c0e5c21 .node-icon-8{font-size:40px;color:black;}#mermaid-bd62ef8b-3f24-4c40-ad3e-e6156c0e5c21 .section-edge-8{stroke:hsl(150, 100%, 76.2745098039%);}#mermaid-bd62ef8b-3f24-4c40-ad3e-e6156c0e5c21 .edge-depth-8{stroke-width:-10;}#mermaid-bd62ef8b-3f24-4c40-ad3e-e6156c0e5c21 .section-8 line{stroke:hsl(330, 100%, 86.2745098039%);stroke-width:3;}#mermaid-bd62ef8b-3f24-4c40-ad3e-e6156c0e5c21 .lineWrapper line{stroke:black;}#mermaid-bd62ef8b-3f24-4c40-ad3e-e6156c0e5c21 .disabled,#mermaid-bd62ef8b-3f24-4c40-ad3e-e6156c0e5c21 .disabled circle,#mermaid-bd62ef8b-3f24-4c40-ad3e-e6156c0e5c21 .disabled text{fill:lightgray;}#mermaid-bd62ef8b-3f24-4c40-ad3e-e6156c0e5c21 .disabled text{fill:#efefef;}#mermaid-bd62ef8b-3f24-4c40-ad3e-e6156c0e5c21 .section-9 rect,#mermaid-bd62ef8b-3f24-4c40-ad3e-e6156c0e5c21 .section-9 path,#mermaid-bd62ef8b-3f24-4c40-ad3e-e6156c0e5c21 .section-9 circle,#mermaid-bd62ef8b-3f24-4c40-ad3e-e6156c0e5c21 .section-9 path{fill:hsl(180, 100%, 76.2745098039%);}#mermaid-bd62ef8b-3f24-4c40-ad3e-e6156c0e5c21 .section-9 text{fill:black;}#mermaid-bd62ef8b-3f24-4c40-ad3e-e6156c0e5c21 .node-icon-9{font-size:40px;color:black;}#mermaid-bd62ef8b-3f24-4c40-ad3e-e6156c0e5c21 .section-edge-9{stroke:hsl(180, 100%, 76.2745098039%);}#mermaid-bd62ef8b-3f24-4c40-ad3e-e6156c0e5c21 .edge-depth-9{stroke-width:-13;}#mermaid-bd62ef8b-3f24-4c40-ad3e-e6156c0e5c21 .section-9 line{stroke:hsl(0, 100%, 86.2745098039%);stroke-width:3;}#mermaid-bd62ef8b-3f24-4c40-ad3e-e6156c0e5c21 .lineWrapper line{stroke:black;}#mermaid-bd62ef8b-3f24-4c40-ad3e-e6156c0e5c21 .disabled,#mermaid-bd62ef8b-3f24-4c40-ad3e-e6156c0e5c21 .disabled circle,#mermaid-bd62ef8b-3f24-4c40-ad3e-e6156c0e5c21 .disabled text{fill:lightgray;}#mermaid-bd62ef8b-3f24-4c40-ad3e-e6156c0e5c21 .disabled text{fill:#efefef;}#mermaid-bd62ef8b-3f24-4c40-ad3e-e6156c0e5c21 .section-10 rect,#mermaid-bd62ef8b-3f24-4c40-ad3e-e6156c0e5c21 .section-10 path,#mermaid-bd62ef8b-3f24-4c40-ad3e-e6156c0e5c21 .section-10 circle,#mermaid-bd62ef8b-3f24-4c40-ad3e-e6156c0e5c21 .section-10 path{fill:hsl(210, 100%, 76.2745098039%);}#mermaid-bd62ef8b-3f24-4c40-ad3e-e6156c0e5c21 .section-10 text{fill:black;}#mermaid-bd62ef8b-3f24-4c40-ad3e-e6156c0e5c21 .node-icon-10{font-size:40px;color:black;}#mermaid-bd62ef8b-3f24-4c40-ad3e-e6156c0e5c21 .section-edge-10{stroke:hsl(210, 100%, 76.2745098039%);}#mermaid-bd62ef8b-3f24-4c40-ad3e-e6156c0e5c21 .edge-depth-10{stroke-width:-16;}#mermaid-bd62ef8b-3f24-4c40-ad3e-e6156c0e5c21 .section-10 line{stroke:hsl(30, 100%, 86.2745098039%);stroke-width:3;}#mermaid-bd62ef8b-3f24-4c40-ad3e-e6156c0e5c21 .lineWrapper line{stroke:black;}#mermaid-bd62ef8b-3f24-4c40-ad3e-e6156c0e5c21 .disabled,#mermaid-bd62ef8b-3f24-4c40-ad3e-e6156c0e5c21 .disabled circle,#mermaid-bd62ef8b-3f24-4c40-ad3e-e6156c0e5c21 .disabled text{fill:lightgray;}#mermaid-bd62ef8b-3f24-4c40-ad3e-e6156c0e5c21 .disabled text{fill:#efefef;}#mermaid-bd62ef8b-3f24-4c40-ad3e-e6156c0e5c21 .section-root rect,#mermaid-bd62ef8b-3f24-4c40-ad3e-e6156c0e5c21 .section-root path,#mermaid-bd62ef8b-3f24-4c40-ad3e-e6156c0e5c21 .section-root circle{fill:hsl(240, 100%, 46.2745098039%);}#mermaid-bd62ef8b-3f24-4c40-ad3e-e6156c0e5c21 .section-root text{fill:#ffffff;}#mermaid-bd62ef8b-3f24-4c40-ad3e-e6156c0e5c21 .icon-container{height:100%;display:flex;justify-content:center;align-items:center;}#mermaid-bd62ef8b-3f24-4c40-ad3e-e6156c0e5c21 .edge{fill:none;}#mermaid-bd62ef8b-3f24-4c40-ad3e-e6156c0e5c21 .eventWrapper{filter:brightness(120%);}#mermaid-bd62ef8b-3f24-4c40-ad3e-e6156c0e5c21 :root{--mermaid-font-family:"trebuchet ms",verdana,arial,sans-serif;}</style><g></g><g></g><defs><marker id="arrowhead" refX="5" refY="2" markerWidth="6" markerHeight="4" orient="auto"><path d="M 0,0 V 4 L6,2 Z"></path></marker></defs><g transform="translate(100, 50)"><g class="timeline-node section--1"><g><path id="node-undefined" class="node-bkg node-undefined" d="M0 62.46666793823242 v-57.46666793823242 q0,-5 5,-5 h780 q5,0 5,5 v62.46666793823242 H0 Z"></path><line class="node-line--1" x1="0" y1="67.46666793823242" x2="790" y2="67.46666793823242"></line></g><g transform="translate(395, 10)"><text dy="1em" alignment-baseline="middle" dominant-baseline="middle" text-anchor="middle"><tspan x="0" dy="1em">2021–2025年</tspan></text></g></g></g><g class="taskWrapper" transform="translate(100, 167.46666793823243)"><g class="timeline-node section--1"><g><path id="node-undefined" class="node-bkg node-undefined" d="M0 62.46666793823242 v-57.46666793823242 q0,-5 5,-5 h180 q5,0 5,5 v62.46666793823242 H0 Z"></path><line class="node-line--1" x1="0" y1="67.46666793823242" x2="190" y2="67.46666793823242"></line></g><g transform="translate(95, 10)"><text dy="1em" alignment-baseline="middle" dominant-baseline="middle" text-anchor="middle"><tspan x="0" dy="1em">2021年</tspan></text></g></g></g><g class="lineWrapper"><line x1="195" y1="234.93333587646487" x2="195" y2="707.2000114440918" stroke-width="2" stroke="black" marker-end="url(#arrowhead)" stroke-dasharray="5,5"></line></g><g class="eventWrapper" transform="translate(100, 367.46666793823243)"><g class="timeline-node section--1"><g><path id="node-undefined" class="node-bkg node-undefined" d="M0 45 v-40 q0,-5 5,-5 h180 q5,0 5,5 v45 H0 Z"></path><line class="node-line--1" x1="0" y1="50" x2="190" y2="50"></line></g><g transform="translate(95, 10)"><text dy="1em" alignment-baseline="middle" dominant-baseline="middle" text-anchor="middle"><tspan x="0" dy="1em">福建</tspan></text></g></g></g><g class="eventWrapper" transform="translate(100, 427.46666793823243)"><g class="timeline-node section--1"><g><path id="node-undefined" class="node-bkg node-undefined" d="M0 45 v-40 q0,-5 5,-5 h180 q5,0 5,5 v45 H0 Z"></path><line class="node-line--1" x1="0" y1="50" x2="190" y2="50"></line></g><g transform="translate(95, 10)"><text dy="1em" alignment-baseline="middle" dominant-baseline="middle" text-anchor="middle"><tspan x="0" dy="1em">古雷炼化一期</tspan></text></g></g></g><g class="eventWrapper" transform="translate(100, 487.46666793823243)"><g class="timeline-node section--1"><g><path id="node-undefined" class="node-bkg node-undefined" d="M0 45 v-40 q0,-5 5,-5 h180 q5,0 5,5 v45 H0 Z"></path><line class="node-line--1" x1="0" y1="50" x2="190" y2="50"></line></g><g transform="translate(95, 10)"><text dy="1em" alignment-baseline="middle" dominant-baseline="middle" text-anchor="middle"><tspan x="0" dy="1em">中石化</tspan></text></g></g></g><g class="eventWrapper" transform="translate(100, 547.4666679382324)"><g class="timeline-node section--1"><g><path id="node-undefined" class="node-bkg node-undefined" d="M0 45 v-40 q0,-5 5,-5 h180 q5,0 5,5 v45 H0 Z"></path><line class="node-line--1" x1="0" y1="50" x2="190" y2="50"></line></g><g transform="translate(95, 10)"><text dy="1em" alignment-baseline="middle" dominant-baseline="middle" text-anchor="middle"><tspan x="0" dy="1em">800万吨/年</tspan></text></g></g></g><g class="eventWrapper" transform="translate(100, 607.4666679382324)"><g class="timeline-node section--1"><g><path id="node-undefined" class="node-bkg node-undefined" d="M0 45 v-40 q0,-5 5,-5 h180 q5,0 5,5 v45 H0 Z"></path><line class="node-line--1" x1="0" y1="50" x2="190" y2="50"></line></g><g transform="translate(95, 10)"><text dy="1em" alignment-baseline="middle" dominant-baseline="middle" text-anchor="middle"><tspan x="0" dy="1em">2021年8月投产</tspan></text></g></g></g><g class="eventWrapper" transform="translate(100, 667.4666679382324)"><g class="timeline-node section--1"><g><path id="node-undefined" class="node-bkg node-undefined" d="M0 45 v-40 q0,-5 5,-5 h180 q5,0 5,5 v45 H0 Z"></path><line class="node-line--1" x1="0" y1="50" x2="190" y2="50"></line></g><g transform="translate(95, 10)"><text dy="1em" alignment-baseline="middle" dominant-baseline="middle" text-anchor="middle"><tspan x="0" dy="1em">炼化一体化</tspan></text></g></g></g><g class="taskWrapper" transform="translate(300, 167.46666793823243)"><g class="timeline-node section--1"><g><path id="node-undefined" class="node-bkg node-undefined" d="M0 62.46666793823242 v-57.46666793823242 q0,-5 5,-5 h180 q5,0 5,5 v62.46666793823242 H0 Z"></path><line class="node-line--1" x1="0" y1="67.46666793823242" x2="190" y2="67.46666793823242"></line></g><g transform="translate(95, 10)"><text dy="1em" alignment-baseline="middle" dominant-baseline="middle" text-anchor="middle"><tspan x="0" dy="1em">2021年</tspan></text></g></g></g><g class="lineWrapper"><line x1="395" y1="234.93333587646487" x2="395" y2="707.2000114440918" stroke-width="2" stroke="black" marker-end="url(#arrowhead)" stroke-dasharray="5,5"></line></g><g class="eventWrapper" transform="translate(300, 367.46666793823243)"><g class="timeline-node section--1"><g><path id="node-undefined" class="node-bkg node-undefined" d="M0 45 v-40 q0,-5 5,-5 h180 q5,0 5,5 v45 H0 Z"></path><line class="node-line--1" x1="0" y1="50" x2="190" y2="50"></line></g><g transform="translate(95, 10)"><text dy="1em" alignment-baseline="middle" dominant-baseline="middle" text-anchor="middle"><tspan x="0" dy="1em">辽宁</tspan></text></g></g></g><g class="eventWrapper" transform="translate(300, 427.46666793823243)"><g class="timeline-node section--1"><g><path id="node-undefined" class="node-bkg node-undefined" d="M0 45 v-40 q0,-5 5,-5 h180 q5,0 5,5 v45 H0 Z"></path><line class="node-line--1" x1="0" y1="50" x2="190" y2="50"></line></g><g transform="translate(95, 10)"><text dy="1em" alignment-baseline="middle" dominant-baseline="middle" text-anchor="middle"><tspan x="0" dy="1em">恒力石化</tspan></text></g></g></g><g class="eventWrapper" transform="translate(300, 487.46666793823243)"><g class="timeline-node section--1"><g><path id="node-undefined" class="node-bkg node-undefined" d="M0 45 v-40 q0,-5 5,-5 h180 q5,0 5,5 v45 H0 Z"></path><line class="node-line--1" x1="0" y1="50" x2="190" y2="50"></line></g><g transform="translate(95, 10)"><text dy="1em" alignment-baseline="middle" dominant-baseline="middle" text-anchor="middle"><tspan x="0" dy="1em">恒力石化</tspan></text></g></g></g><g class="eventWrapper" transform="translate(300, 547.4666679382324)"><g class="timeline-node section--1"><g><path id="node-undefined" class="node-bkg node-undefined" d="M0 45 v-40 q0,-5 5,-5 h180 q5,0 5,5 v45 H0 Z"></path><line class="node-line--1" x1="0" y1="50" x2="190" y2="50"></line></g><g transform="translate(95, 10)"><text dy="1em" alignment-baseline="middle" dominant-baseline="middle" text-anchor="middle"><tspan x="0" dy="1em">2000万吨/年</tspan></text></g></g></g><g class="eventWrapper" transform="translate(300, 607.4666679382324)"><g class="timeline-node section--1"><g><path id="node-undefined" class="node-bkg node-undefined" d="M0 45 v-40 q0,-5 5,-5 h180 q5,0 5,5 v45 H0 Z"></path><line class="node-line--1" x1="0" y1="50" x2="190" y2="50"></line></g><g transform="translate(95, 10)"><text dy="1em" alignment-baseline="middle" dominant-baseline="middle" text-anchor="middle"><tspan x="0" dy="1em">2021年已投</tspan></text></g></g></g><g class="eventWrapper" transform="translate(300, 667.4666679382324)"><g class="timeline-node section--1"><g><path id="node-undefined" class="node-bkg node-undefined" d="M0 45 v-40 q0,-5 5,-5 h180 q5,0 5,5 v45 H0 Z"></path><line class="node-line--1" x1="0" y1="50" x2="190" y2="50"></line></g><g transform="translate(95, 10)"><text dy="1em" alignment-baseline="middle" dominant-baseline="middle" text-anchor="middle"><tspan x="0" dy="1em">2021年达产</tspan></text></g></g></g><g class="taskWrapper" transform="translate(500, 167.46666793823243)"><g class="timeline-node section--1"><g><path id="node-undefined" class="node-bkg node-undefined" d="M0 62.46666793823242 v-57.46666793823242 q0,-5 5,-5 h180 q5,0 5,5 v62.46666793823242 H0 Z"></path><line class="node-line--1" x1="0" y1="67.46666793823242" x2="190" y2="67.46666793823242"></line></g><g transform="translate(95, 10)"><text dy="1em" alignment-baseline="middle" dominant-baseline="middle" text-anchor="middle"><tspan x="0" dy="1em">2022年</tspan></text></g></g></g><g class="lineWrapper"><line x1="595" y1="234.93333587646487" x2="595" y2="707.2000114440918" stroke-width="2" stroke="black" marker-end="url(#arrowhead)" stroke-dasharray="5,5"></line></g><g class="eventWrapper" transform="translate(500, 367.46666793823243)"><g class="timeline-node section--1"><g><path id="node-undefined" class="node-bkg node-undefined" d="M0 45 v-40 q0,-5 5,-5 h180 q5,0 5,5 v45 H0 Z"></path><line class="node-line--1" x1="0" y1="50" x2="190" y2="50"></line></g><g transform="translate(95, 10)"><text dy="1em" alignment-baseline="middle" dominant-baseline="middle" text-anchor="middle"><tspan x="0" dy="1em">浙江</tspan></text></g></g></g><g class="eventWrapper" transform="translate(500, 427.46666793823243)"><g class="timeline-node section--1"><g><path id="node-undefined" class="node-bkg node-undefined" d="M0 45 v-40 q0,-5 5,-5 h180 q5,0 5,5 v45 H0 Z"></path><line class="node-line--1" x1="0" y1="50" x2="190" y2="50"></line></g><g transform="translate(95, 10)"><text dy="1em" alignment-baseline="middle" dominant-baseline="middle" text-anchor="middle"><tspan x="0" dy="1em">浙江石化二期</tspan></text></g></g></g><g class="eventWrapper" transform="translate(500, 487.46666793823243)"><g class="timeline-node section--1"><g><path id="node-undefined" class="node-bkg node-undefined" d="M0 45 v-40 q0,-5 5,-5 h180 q5,0 5,5 v45 H0 Z"></path><line class="node-line--1" x1="0" y1="50" x2="190" y2="50"></line></g><g transform="translate(95, 10)"><text dy="1em" alignment-baseline="middle" dominant-baseline="middle" text-anchor="middle"><tspan x="0" dy="1em">荣盛等</tspan></text></g></g></g><g class="eventWrapper" transform="translate(500, 547.4666679382324)"><g class="timeline-node section--1"><g><path id="node-undefined" class="node-bkg node-undefined" d="M0 45 v-40 q0,-5 5,-5 h180 q5,0 5,5 v45 H0 Z"></path><line class="node-line--1" x1="0" y1="50" x2="190" y2="50"></line></g><g transform="translate(95, 10)"><text dy="1em" alignment-baseline="middle" dominant-baseline="middle" text-anchor="middle"><tspan x="0" dy="1em">2000万吨/年</tspan></text></g></g></g><g class="eventWrapper" transform="translate(500, 607.4666679382324)"><g class="timeline-node section--1"><g><path id="node-undefined" class="node-bkg node-undefined" d="M0 45 v-40 q0,-5 5,-5 h180 q5,0 5,5 v45 H0 Z"></path><line class="node-line--1" x1="0" y1="50" x2="190" y2="50"></line></g><g transform="translate(95, 10)"><text dy="1em" alignment-baseline="middle" dominant-baseline="middle" text-anchor="middle"><tspan x="0" dy="1em">2022年6月投产</tspan></text></g></g></g><g class="eventWrapper" transform="translate(500, 667.4666679382324)"><g class="timeline-node section--1"><g><path id="node-undefined" class="node-bkg node-undefined" d="M0 45 v-40 q0,-5 5,-5 h180 q5,0 5,5 v45 H0 Z"></path><line class="node-line--1" x1="0" y1="50" x2="190" y2="50"></line></g><g transform="translate(95, 10)"><text dy="1em" alignment-baseline="middle" dominant-baseline="middle" text-anchor="middle"><tspan x="0" dy="1em">炼化一体化</tspan></text></g></g></g><g class="taskWrapper" transform="translate(700, 167.46666793823243)"><g class="timeline-node section--1"><g><path id="node-undefined" class="node-bkg node-undefined" d="M0 62.46666793823242 v-57.46666793823242 q0,-5 5,-5 h180 q5,0 5,5 v62.46666793823242 H0 Z"></path><line class="node-line--1" x1="0" y1="67.46666793823242" x2="190" y2="67.46666793823242"></line></g><g transform="translate(95, 10)"><text dy="1em" alignment-baseline="middle" dominant-baseline="middle" text-anchor="middle"><tspan x="0" dy="1em">2022年</tspan></text></g></g></g><g class="lineWrapper"><line x1="795" y1="234.93333587646487" x2="795" y2="707.2000114440918" stroke-width="2" stroke="black" marker-end="url(#arrowhead)" stroke-dasharray="5,5"></line></g><g class="eventWrapper" transform="translate(700, 367.46666793823243)"><g class="timeline-node section--1"><g><path id="node-undefined" class="node-bkg node-undefined" d="M0 45 v-40 q0,-5 5,-5 h180 q5,0 5,5 v45 H0 Z"></path><line class="node-line--1" x1="0" y1="50" x2="190" y2="50"></line></g><g transform="translate(95, 10)"><text dy="1em" alignment-baseline="middle" dominant-baseline="middle" text-anchor="middle"><tspan x="0" dy="1em">江苏</tspan></text></g></g></g><g class="eventWrapper" transform="translate(700, 427.46666793823243)"><g class="timeline-node section--1"><g><path id="node-undefined" class="node-bkg node-undefined" d="M0 45 v-40 q0,-5 5,-5 h180 q5,0 5,5 v45 H0 Z"></path><line class="node-line--1" x1="0" y1="50" x2="190" y2="50"></line></g><g transform="translate(95, 10)"><text dy="1em" alignment-baseline="middle" dominant-baseline="middle" text-anchor="middle"><tspan x="0" dy="1em">盛虹炼化一期</tspan></text></g></g></g><g class="eventWrapper" transform="translate(700, 487.46666793823243)"><g class="timeline-node section--1"><g><path id="node-undefined" class="node-bkg node-undefined" d="M0 45 v-40 q0,-5 5,-5 h180 q5,0 5,5 v45 H0 Z"></path><line class="node-line--1" x1="0" y1="50" x2="190" y2="50"></line></g><g transform="translate(95, 10)"><text dy="1em" alignment-baseline="middle" dominant-baseline="middle" text-anchor="middle"><tspan x="0" dy="1em">盛虹炼化</tspan></text></g></g></g><g class="eventWrapper" transform="translate(700, 547.4666679382324)"><g class="timeline-node section--1"><g><path id="node-undefined" class="node-bkg node-undefined" d="M0 45 v-40 q0,-5 5,-5 h180 q5,0 5,5 v45 H0 Z"></path><line class="node-line--1" x1="0" y1="50" x2="190" y2="50"></line></g><g transform="translate(95, 10)"><text dy="1em" alignment-baseline="middle" dominant-baseline="middle" text-anchor="middle"><tspan x="0" dy="1em">1600万吨/年</tspan></text></g></g></g><g class="eventWrapper" transform="translate(700, 607.4666679382324)"><g class="timeline-node section--1"><g><path id="node-undefined" class="node-bkg node-undefined" d="M0 45 v-40 q0,-5 5,-5 h180 q5,0 5,5 v45 H0 Z"></path><line class="node-line--1" x1="0" y1="50" x2="190" y2="50"></line></g><g transform="translate(95, 10)"><text dy="1em" alignment-baseline="middle" dominant-baseline="middle" text-anchor="middle"><tspan x="0" dy="1em">2022年5月投产</tspan></text></g></g></g><g class="eventWrapper" transform="translate(700, 667.4666679382324)"><g class="timeline-node section--1"><g><path id="node-undefined" class="node-bkg node-undefined" d="M0 45 v-40 q0,-5 5,-5 h180 q5,0 5,5 v45 H0 Z"></path><line class="node-line--1" x1="0" y1="50" x2="190" y2="50"></line></g><g transform="translate(95, 10)"><text dy="1em" alignment-baseline="middle" dominant-baseline="middle" text-anchor="middle"><tspan x="0" dy="1em">炼化一体化</tspan></text></g></g></g><g transform="translate(900, 50)"><g class="timeline-node section-0"><g><path id="node-undefined" class="node-bkg node-undefined" d="M0 62.46666793823242 v-57.46666793823242 q0,-5 5,-5 h980 q5,0 5,5 v62.46666793823242 H0 Z"></path><line class="node-line-0" x1="0" y1="67.46666793823242" x2="990" y2="67.46666793823242"></line></g><g transform="translate(495, 10)"><text dy="1em" alignment-baseline="middle" dominant-baseline="middle" text-anchor="middle"><tspan x="0" dy="1em">2026–2030年</tspan></text></g></g></g><g class="taskWrapper" transform="translate(900, 167.46666793823243)"><g class="timeline-node section-0"><g><path id="node-undefined" class="node-bkg node-undefined" d="M0 62.46666793823242 v-57.46666793823242 q0,-5 5,-5 h180 q5,0 5,5 v62.46666793823242 H0 Z"></path><line class="node-line-0" x1="0" y1="67.46666793823242" x2="190" y2="67.46666793823242"></line></g><g transform="translate(95, 10)"><text dy="1em" alignment-baseline="middle" dominant-baseline="middle" text-anchor="middle"><tspan x="0" dy="1em">2025年</tspan></text></g></g></g><g class="lineWrapper"><line x1="995" y1="234.93333587646487" x2="995" y2="707.2000114440918" stroke-width="2" stroke="black" marker-end="url(#arrowhead)" stroke-dasharray="5,5"></line></g><g class="eventWrapper" transform="translate(900, 367.46666793823243)"><g class="timeline-node section-0"><g><path id="node-undefined" class="node-bkg node-undefined" d="M0 45 v-40 q0,-5 5,-5 h180 q5,0 5,5 v45 H0 Z"></path><line class="node-line-0" x1="0" y1="50" x2="190" y2="50"></line></g><g transform="translate(95, 10)"><text dy="1em" alignment-baseline="middle" dominant-baseline="middle" text-anchor="middle"><tspan x="0" dy="1em">山东</tspan></text></g></g></g><g class="eventWrapper" transform="translate(900, 427.46666793823243)"><g class="timeline-node section-0"><g><path id="node-undefined" class="node-bkg node-undefined" d="M0 45 v-40 q0,-5 5,-5 h180 q5,0 5,5 v45 H0 Z"></path><line class="node-line-0" x1="0" y1="50" x2="190" y2="50"></line></g><g transform="translate(95, 10)"><text dy="1em" alignment-baseline="middle" dominant-baseline="middle" text-anchor="middle"><tspan x="0" dy="1em">裕龙石化一期</tspan></text></g></g></g><g class="eventWrapper" transform="translate(900, 487.46666793823243)"><g class="timeline-node section-0"><g><path id="node-undefined" class="node-bkg node-undefined" d="M0 45 v-40 q0,-5 5,-5 h180 q5,0 5,5 v45 H0 Z"></path><line class="node-line-0" x1="0" y1="50" x2="190" y2="50"></line></g><g transform="translate(95, 10)"><text dy="1em" alignment-baseline="middle" dominant-baseline="middle" text-anchor="middle"><tspan x="0" dy="1em">裕龙石化</tspan></text></g></g></g><g class="eventWrapper" transform="translate(900, 547.4666679382324)"><g class="timeline-node section-0"><g><path id="node-undefined" class="node-bkg node-undefined" d="M0 45 v-40 q0,-5 5,-5 h180 q5,0 5,5 v45 H0 Z"></path><line class="node-line-0" x1="0" y1="50" x2="190" y2="50"></line></g><g transform="translate(95, 10)"><text dy="1em" alignment-baseline="middle" dominant-baseline="middle" text-anchor="middle"><tspan x="0" dy="1em">1000万吨/年</tspan></text></g></g></g><g class="eventWrapper" transform="translate(900, 607.4666679382324)"><g class="timeline-node section-0"><g><path id="node-undefined" class="node-bkg node-undefined" d="M0 45 v-40 q0,-5 5,-5 h180 q5,0 5,5 v45 H0 Z"></path><line class="node-line-0" x1="0" y1="50" x2="190" y2="50"></line></g><g transform="translate(95, 10)"><text dy="1em" alignment-baseline="middle" dominant-baseline="middle" text-anchor="middle"><tspan x="0" dy="1em">预计2025年投产</tspan></text></g></g></g><g class="eventWrapper" transform="translate(900, 667.4666679382324)"><g class="timeline-node section-0"><g><path id="node-undefined" class="node-bkg node-undefined" d="M0 45 v-40 q0,-5 5,-5 h180 q5,0 5,5 v45 H0 Z"></path><line class="node-line-0" x1="0" y1="50" x2="190" y2="50"></line></g><g transform="translate(95, 10)"><text dy="1em" alignment-baseline="middle" dominant-baseline="middle" text-anchor="middle"><tspan x="0" dy="1em">炼化一体化</tspan></text></g></g></g><g class="taskWrapper" transform="translate(1100, 167.46666793823243)"><g class="timeline-node section-0"><g><path id="node-undefined" class="node-bkg node-undefined" d="M0 62.46666793823242 v-57.46666793823242 q0,-5 5,-5 h180 q5,0 5,5 v62.46666793823242 H0 Z"></path><line class="node-line-0" x1="0" y1="67.46666793823242" x2="190" y2="67.46666793823242"></line></g><g transform="translate(95, 10)"><text dy="1em" alignment-baseline="middle" dominant-baseline="middle" text-anchor="middle"><tspan x="0" dy="1em">2025年</tspan></text></g></g></g><g class="lineWrapper"><line x1="1195" y1="234.93333587646487" x2="1195" y2="707.2000114440918" stroke-width="2" stroke="black" marker-end="url(#arrowhead)" stroke-dasharray="5,5"></line></g><g class="eventWrapper" transform="translate(1100, 367.46666793823243)"><g class="timeline-node section-0"><g><path id="node-undefined" class="node-bkg node-undefined" d="M0 45 v-40 q0,-5 5,-5 h180 q5,0 5,5 v45 H0 Z"></path><line class="node-line-0" x1="0" y1="50" x2="190" y2="50"></line></g><g transform="translate(95, 10)"><text dy="1em" alignment-baseline="middle" dominant-baseline="middle" text-anchor="middle"><tspan x="0" dy="1em">浙江</tspan></text></g></g></g><g class="eventWrapper" transform="translate(1100, 427.46666793823243)"><g class="timeline-node section-0"><g><path id="node-undefined" class="node-bkg node-undefined" d="M0 45 v-40 q0,-5 5,-5 h180 q5,0 5,5 v45 H0 Z"></path><line class="node-line-0" x1="0" y1="50" x2="190" y2="50"></line></g><g transform="translate(95, 10)"><text dy="1em" alignment-baseline="middle" dominant-baseline="middle" text-anchor="middle"><tspan x="0" dy="1em">镇海炼化扩建</tspan></text></g></g></g><g class="eventWrapper" transform="translate(1100, 487.46666793823243)"><g class="timeline-node section-0"><g><path id="node-undefined" class="node-bkg node-undefined" d="M0 45 v-40 q0,-5 5,-5 h180 q5,0 5,5 v45 H0 Z"></path><line class="node-line-0" x1="0" y1="50" x2="190" y2="50"></line></g><g transform="translate(95, 10)"><text dy="1em" alignment-baseline="middle" dominant-baseline="middle" text-anchor="middle"><tspan x="0" dy="1em">中国石化</tspan></text></g></g></g><g class="eventWrapper" transform="translate(1100, 547.4666679382324)"><g class="timeline-node section-0"><g><path id="node-undefined" class="node-bkg node-undefined" d="M0 45 v-40 q0,-5 5,-5 h180 q5,0 5,5 v45 H0 Z"></path><line class="node-line-0" x1="0" y1="50" x2="190" y2="50"></line></g><g transform="translate(95, 10)"><text dy="1em" alignment-baseline="middle" dominant-baseline="middle" text-anchor="middle"><tspan x="0" dy="1em">1100万吨/年</tspan></text></g></g></g><g class="eventWrapper" transform="translate(1100, 607.4666679382324)"><g class="timeline-node section-0"><g><path id="node-undefined" class="node-bkg node-undefined" d="M0 45 v-40 q0,-5 5,-5 h180 q5,0 5,5 v45 H0 Z"></path><line class="node-line-0" x1="0" y1="50" x2="190" y2="50"></line></g><g transform="translate(95, 10)"><text dy="1em" alignment-baseline="middle" dominant-baseline="middle" text-anchor="middle"><tspan x="0" dy="1em">预计2025年投产</tspan></text></g></g></g><g class="eventWrapper" transform="translate(1100, 667.4666679382324)"><g class="timeline-node section-0"><g><path id="node-undefined" class="node-bkg node-undefined" d="M0 45 v-40 q0,-5 5,-5 h180 q5,0 5,5 v45 H0 Z"></path><line class="node-line-0" x1="0" y1="50" x2="190" y2="50"></line></g><g transform="translate(95, 10)"><text dy="1em" alignment-baseline="middle" dominant-baseline="middle" text-anchor="middle"><tspan x="0" dy="1em">成品油+化工</tspan></text></g></g></g><g class="taskWrapper" transform="translate(1300, 167.46666793823243)"><g class="timeline-node section-0"><g><path id="node-undefined" class="node-bkg node-undefined" d="M0 62.46666793823242 v-57.46666793823242 q0,-5 5,-5 h180 q5,0 5,5 v62.46666793823242 H0 Z"></path><line class="node-line-0" x1="0" y1="67.46666793823242" x2="190" y2="67.46666793823242"></line></g><g transform="translate(95, 10)"><text dy="1em" alignment-baseline="middle" dominant-baseline="middle" text-anchor="middle"><tspan x="0" dy="1em">2025年</tspan></text></g></g></g><g class="lineWrapper"><line x1="1395" y1="234.93333587646487" x2="1395" y2="707.2000114440918" stroke-width="2" stroke="black" marker-end="url(#arrowhead)" stroke-dasharray="5,5"></line></g><g class="eventWrapper" transform="translate(1300, 367.46666793823243)"><g class="timeline-node section-0"><g><path id="node-undefined" class="node-bkg node-undefined" d="M0 45 v-40 q0,-5 5,-5 h180 q5,0 5,5 v45 H0 Z"></path><line class="node-line-0" x1="0" y1="50" x2="190" y2="50"></line></g><g transform="translate(95, 10)"><text dy="1em" alignment-baseline="middle" dominant-baseline="middle" text-anchor="middle"><tspan x="0" dy="1em">浙江</tspan></text></g></g></g><g class="eventWrapper" transform="translate(1300, 427.46666793823243)"><g class="timeline-node section-0"><g><path id="node-undefined" class="node-bkg node-undefined" d="M0 45 v-40 q0,-5 5,-5 h180 q5,0 5,5 v45 H0 Z"></path><line class="node-line-0" x1="0" y1="50" x2="190" y2="50"></line></g><g transform="translate(95, 10)"><text dy="1em" alignment-baseline="middle" dominant-baseline="middle" text-anchor="middle"><tspan x="0" dy="1em">宁波大榭石化</tspan></text></g></g></g><g class="eventWrapper" transform="translate(1300, 487.46666793823243)"><g class="timeline-node section-0"><g><path id="node-undefined" class="node-bkg node-undefined" d="M0 45 v-40 q0,-5 5,-5 h180 q5,0 5,5 v45 H0 Z"></path><line class="node-line-0" x1="0" y1="50" x2="190" y2="50"></line></g><g transform="translate(95, 10)"><text dy="1em" alignment-baseline="middle" dominant-baseline="middle" text-anchor="middle"><tspan x="0" dy="1em">中海油</tspan></text></g></g></g><g class="eventWrapper" transform="translate(1300, 547.4666679382324)"><g class="timeline-node section-0"><g><path id="node-undefined" class="node-bkg node-undefined" d="M0 45 v-40 q0,-5 5,-5 h180 q5,0 5,5 v45 H0 Z"></path><line class="node-line-0" x1="0" y1="50" x2="190" y2="50"></line></g><g transform="translate(95, 10)"><text dy="1em" alignment-baseline="middle" dominant-baseline="middle" text-anchor="middle"><tspan x="0" dy="1em">600万吨/年</tspan></text></g></g></g><g class="eventWrapper" transform="translate(1300, 607.4666679382324)"><g class="timeline-node section-0"><g><path id="node-undefined" class="node-bkg node-undefined" d="M0 45 v-40 q0,-5 5,-5 h180 q5,0 5,5 v45 H0 Z"></path><line class="node-line-0" x1="0" y1="50" x2="190" y2="50"></line></g><g transform="translate(95, 10)"><text dy="1em" alignment-baseline="middle" dominant-baseline="middle" text-anchor="middle"><tspan x="0" dy="1em">预计2025年投产</tspan></text></g></g></g><g class="eventWrapper" transform="translate(1300, 667.4666679382324)"><g class="timeline-node section-0"><g><path id="node-undefined" class="node-bkg node-undefined" d="M0 45 v-40 q0,-5 5,-5 h180 q5,0 5,5 v45 H0 Z"></path><line class="node-line-0" x1="0" y1="50" x2="190" y2="50"></line></g><g transform="translate(95, 10)"><text dy="1em" alignment-baseline="middle" dominant-baseline="middle" text-anchor="middle"><tspan x="0" dy="1em">炼化一体化</tspan></text></g></g></g><g class="taskWrapper" transform="translate(1500, 167.46666793823243)"><g class="timeline-node section-0"><g><path id="node-undefined" class="node-bkg node-undefined" d="M0 62.46666793823242 v-57.46666793823242 q0,-5 5,-5 h180 q5,0 5,5 v62.46666793823242 H0 Z"></path><line class="node-line-0" x1="0" y1="67.46666793823242" x2="190" y2="67.46666793823242"></line></g><g transform="translate(95, 10)"><text dy="1em" alignment-baseline="middle" dominant-baseline="middle" text-anchor="middle"><tspan x="0" dy="1em">2026年</tspan></text></g></g></g><g class="lineWrapper"><line x1="1595" y1="234.93333587646487" x2="1595" y2="707.2000114440918" stroke-width="2" stroke="black" marker-end="url(#arrowhead)" stroke-dasharray="5,5"></line></g><g class="eventWrapper" transform="translate(1500, 367.46666793823243)"><g class="timeline-node section-0"><g><path id="node-undefined" class="node-bkg node-undefined" d="M0 45 v-40 q0,-5 5,-5 h180 q5,0 5,5 v45 H0 Z"></path><line class="node-line-0" x1="0" y1="50" x2="190" y2="50"></line></g><g transform="translate(95, 10)"><text dy="1em" alignment-baseline="middle" dominant-baseline="middle" text-anchor="middle"><tspan x="0" dy="1em">辽宁</tspan></text></g></g></g><g class="eventWrapper" transform="translate(1500, 427.46666793823243)"><g class="timeline-node section-0"><g><path id="node-undefined" class="node-bkg node-undefined" d="M0 45 v-40 q0,-5 5,-5 h180 q5,0 5,5 v45 H0 Z"></path><line class="node-line-0" x1="0" y1="50" x2="190" y2="50"></line></g><g transform="translate(95, 10)"><text dy="1em" alignment-baseline="middle" dominant-baseline="middle" text-anchor="middle"><tspan x="0" dy="1em">华锦石化</tspan></text></g></g></g><g class="eventWrapper" transform="translate(1500, 487.46666793823243)"><g class="timeline-node section-0"><g><path id="node-undefined" class="node-bkg node-undefined" d="M0 45 v-40 q0,-5 5,-5 h180 q5,0 5,5 v45 H0 Z"></path><line class="node-line-0" x1="0" y1="50" x2="190" y2="50"></line></g><g transform="translate(95, 10)"><text dy="1em" alignment-baseline="middle" dominant-baseline="middle" text-anchor="middle"><tspan x="0" dy="1em">华锦石化</tspan></text></g></g></g><g class="eventWrapper" transform="translate(1500, 547.4666679382324)"><g class="timeline-node section-0"><g><path id="node-undefined" class="node-bkg node-undefined" d="M0 45 v-40 q0,-5 5,-5 h180 q5,0 5,5 v45 H0 Z"></path><line class="node-line-0" x1="0" y1="50" x2="190" y2="50"></line></g><g transform="translate(95, 10)"><text dy="1em" alignment-baseline="middle" dominant-baseline="middle" text-anchor="middle"><tspan x="0" dy="1em">1500万吨/年</tspan></text></g></g></g><g class="eventWrapper" transform="translate(1500, 607.4666679382324)"><g class="timeline-node section-0"><g><path id="node-undefined" class="node-bkg node-undefined" d="M0 45 v-40 q0,-5 5,-5 h180 q5,0 5,5 v45 H0 Z"></path><line class="node-line-0" x1="0" y1="50" x2="190" y2="50"></line></g><g transform="translate(95, 10)"><text dy="1em" alignment-baseline="middle" dominant-baseline="middle" text-anchor="middle"><tspan x="0" dy="1em">预计2026年投产</tspan></text></g></g></g><g class="eventWrapper" transform="translate(1500, 667.4666679382324)"><g class="timeline-node section-0"><g><path id="node-undefined" class="node-bkg node-undefined" d="M0 45 v-40 q0,-5 5,-5 h180 q5,0 5,5 v45 H0 Z"></path><line class="node-line-0" x1="0" y1="50" x2="190" y2="50"></line></g><g transform="translate(95, 10)"><text dy="1em" alignment-baseline="middle" dominant-baseline="middle" text-anchor="middle"><tspan x="0" dy="1em">炼化一体化</tspan></text></g></g></g><g class="taskWrapper" transform="translate(1700, 167.46666793823243)"><g class="timeline-node section-0"><g><path id="node-undefined" class="node-bkg node-undefined" d="M0 62.46666793823242 v-57.46666793823242 q0,-5 5,-5 h180 q5,0 5,5 v62.46666793823242 H0 Z"></path><line class="node-line-0" x1="0" y1="67.46666793823242" x2="190" y2="67.46666793823242"></line></g><g transform="translate(95, 10)"><text dy="1em" alignment-baseline="middle" dominant-baseline="middle" text-anchor="middle"><tspan x="0" dy="1em">2030年</tspan></text></g></g></g><g class="lineWrapper"><line x1="1795" y1="234.93333587646487" x2="1795" y2="707.2000114440918" stroke-width="2" stroke="black" marker-end="url(#arrowhead)" stroke-dasharray="5,5"></line></g><g class="eventWrapper" transform="translate(1700, 367.46666793823243)"><g class="timeline-node section-0"><g><path id="node-undefined" class="node-bkg node-undefined" d="M0 45 v-40 q0,-5 5,-5 h180 q5,0 5,5 v45 H0 Z"></path><line class="node-line-0" x1="0" y1="50" x2="190" y2="50"></line></g><g transform="translate(95, 10)"><text dy="1em" alignment-baseline="middle" dominant-baseline="middle" text-anchor="middle"><tspan x="0" dy="1em">福建</tspan></text></g></g></g><g class="eventWrapper" transform="translate(1700, 427.46666793823243)"><g class="timeline-node section-0"><g><path id="node-undefined" class="node-bkg node-undefined" d="M0 45 v-40 q0,-5 5,-5 h180 q5,0 5,5 v45 H0 Z"></path><line class="node-line-0" x1="0" y1="50" x2="190" y2="50"></line></g><g transform="translate(95, 10)"><text dy="1em" alignment-baseline="middle" dominant-baseline="middle" text-anchor="middle"><tspan x="0" dy="1em">古雷炼化二期</tspan></text></g></g></g><g class="eventWrapper" transform="translate(1700, 487.46666793823243)"><g class="timeline-node section-0"><g><path id="node-undefined" class="node-bkg node-undefined" d="M0 45 v-40 q0,-5 5,-5 h180 q5,0 5,5 v45 H0 Z"></path><line class="node-line-0" x1="0" y1="50" x2="190" y2="50"></line></g><g transform="translate(95, 10)"><text dy="1em" alignment-baseline="middle" dominant-baseline="middle" text-anchor="middle"><tspan x="0" dy="1em">中国石化</tspan></text></g></g></g><g class="eventWrapper" transform="translate(1700, 547.4666679382324)"><g class="timeline-node section-0"><g><path id="node-undefined" class="node-bkg node-undefined" d="M0 45 v-40 q0,-5 5,-5 h180 q5,0 5,5 v45 H0 Z"></path><line class="node-line-0" x1="0" y1="50" x2="190" y2="50"></line></g><g transform="translate(95, 10)"><text dy="1em" alignment-baseline="middle" dominant-baseline="middle" text-anchor="middle"><tspan x="0" dy="1em">1600万吨/年</tspan></text></g></g></g><g class="eventWrapper" transform="translate(1700, 607.4666679382324)"><g class="timeline-node section-0"><g><path id="node-undefined" class="node-bkg node-undefined" d="M0 45 v-40 q0,-5 5,-5 h180 q5,0 5,5 v45 H0 Z"></path><line class="node-line-0" x1="0" y1="50" x2="190" y2="50"></line></g><g transform="translate(95, 10)"><text dy="1em" alignment-baseline="middle" dominant-baseline="middle" text-anchor="middle"><tspan x="0" dy="1em">预计2030年底投产</tspan></text></g></g></g><g class="eventWrapper" transform="translate(1700, 667.4666679382324)"><g class="timeline-node section-0"><g><path id="node-undefined" class="node-bkg node-undefined" d="M0 45 v-40 q0,-5 5,-5 h180 q5,0 5,5 v45 H0 Z"></path><line class="node-line-0" x1="0" y1="50" x2="190" y2="50"></line></g><g transform="translate(95, 10)"><text dy="1em" alignment-baseline="middle" dominant-baseline="middle" text-anchor="middle"><tspan x="0" dy="1em">炼化一体化</tspan></text></g></g></g><g class="lineWrapper"><line x1="50" y1="284.93333587646487" x2="1940" y2="284.93333587646487" stroke-width="4" stroke="black" marker-end="url(#arrowhead)"></line></g></svg>